<?xml version="1.0" standalone="no"?>
<!DOCTYPE svg PUBLIC "-//W3C//DTD SVG 1.1//EN"
"http://www.w3.org/Graphics/SVG/1.1/DTD/svg11.dtd">

<svg width="354" height="170" view_box="0 0 354 170"
xmlns="http://www.w3.org/2000/svg"
xmlns:link="http://www.w3.org/1999/xlink">\n\n<desc>Généré par Mocodo 2.3.7 le Fri, 25 Mar 2022 01:54:52</desc>

<rect id="frame" x="0" y="0" width="354" height="170" fill="#f7f7f7" stroke="none" stroke-width="0"/>

<!-- Association MAKES -->
<line x1="61" y1="85" x2="174" y2="85" stroke="#4393c3" stroke-width="2"/>
<text x="118" y="102.0" fill="#b2182b" font-family="Verdana" font-size="12">0,N</text>
<line x1="290" y1="85" x2="174" y2="85" stroke="#4393c3" stroke-width="2"/>
<text x="209" y="102.0" fill="#b2182b" font-family="Verdana" font-size="12">1,1</text>
<g id="association-MAKES">
	<path d="M 189 60 a 14 14 90 0 1 14 14 V 85 h -58 V 74 a 14 14 90 0 1 14 -14" fill="#92c5de" stroke="#92c5de" stroke-width="0"/>
	<path d="M 203 85.0 v 11 a 14 14 90 0 1 -14 14 H 159 a 14 14 90 0 1 -14 -14 V 85.0 H 58" fill="#d1e5f0" stroke="#d1e5f0" stroke-width="0"/>
	<rect x="145" y="60" width="58" height="50" fill="none" rx="14" stroke="#4393c3" stroke-width="2"/>
	<line x1="145" y1="85" x2="203" y2="85" stroke="#4393c3" stroke-width="1"/>
	<text x="152" y="77.7" fill="#000000" font-family="Verdana" font-size="12">MAKES</text>
</g>

<!-- Entity RESERVATION -->
<g id="entity-RESERVATION">
	<g id="frame-RESERVATION">
		<rect x="235" y="34" width="110" height="25" fill="#f4a582" stroke="#f4a582" stroke-width="0"/>
		<rect x="235" y="59.0" width="110" height="77" fill="#fddbc7" stroke="#fddbc7" stroke-width="0"/>
		<rect x="235" y="34" width="110" height="102" fill="none" stroke="#d6604d" stroke-width="2"/>
		<line x1="235" y1="59" x2="345" y2="59" stroke="#d6604d" stroke-width="1"/>
	</g>
	<text x="246" y="51.7" fill="#000000" font-family="Verdana" font-size="12">RESERVATION</text>
	<text x="240" y="76.7" fill="#000000" font-family="Verdana" font-size="12">codeReservation</text>
	<line x1="240" y1="79" x2="340" y2="79" stroke="#000000" stroke-width="1"/>
	<text x="240" y="93.8" fill="#000000" font-family="Verdana" font-size="12">reference</text>
	<text x="240" y="110.8" fill="#000000" font-family="Verdana" font-size="12">bookedAt</text>
	<text x="240" y="127.8" fill="#000000" font-family="Verdana" font-size="12">spot</text>
</g>

<!-- Entity USER -->
<g id="entity-USER">
	<g id="frame-USER">
		<rect x="9" y="9" width="104" height="25" fill="#f4a582" stroke="#f4a582" stroke-width="0"/>
		<rect x="9" y="34.0" width="104" height="127" fill="#fddbc7" stroke="#fddbc7" stroke-width="0"/>
		<rect x="9" y="9" width="104" height="152" fill="none" stroke="#d6604d" stroke-width="2"/>
		<line x1="9" y1="34" x2="113" y2="34" stroke="#d6604d" stroke-width="1"/>
	</g>
	<text x="44" y="26.7" fill="#000000" font-family="Verdana" font-size="12">USER</text>
	<text x="14" y="51.7" fill="#000000" font-family="Verdana" font-size="12">codeuser</text>
	<line x1="14" y1="54" x2="69" y2="54" stroke="#000000" stroke-width="1"/>
	<text x="14" y="68.7" fill="#000000" font-family="Verdana" font-size="12">email</text>
	<text x="14" y="85.8" fill="#000000" font-family="Verdana" font-size="12">password</text>
	<text x="14" y="102.8" fill="#000000" font-family="Verdana" font-size="12">roles</text>
	<text x="14" y="119.8" fill="#000000" font-family="Verdana" font-size="12">firstname</text>
	<text x="14" y="136.8" fill="#000000" font-family="Verdana" font-size="12">lastname</text>
	<text x="14" y="153.8" fill="#000000" font-family="Verdana" font-size="12">foodtruckName</text>
</g>
</svg>